<?xml version="1.0" encoding="UTF-8" standalone="no"?>
<svg version="1.1" xmlns="http://www.w3.org/2000/svg" xmlns:xlink="http://www.w3.org/1999/xlink" viewBox="-500 -500 1000 1000">
	<g id="Cross-160-thin">
		<title>Cross CLX, by Adam Stanislav</title>
		<desc>Drawn by hand with a Wacom tablet.</desc>

		<g id="Tvary">
			<g id="Tvar">
				<g id="Polka">
					<path d="m-123.82-485.143c17.667-0.1424 20.96 21.637 17.031 34.99-1.0104 10.774-9.2825 26.943-8.782 32.6 7.0731-5.8108 23.438-5.396 20.264 7.277-4.3975 28.266-22.759 59.034-25.188 84.159 8.919-7.3939 13.305-19.679 21.655-26.78 9.2342 4.6236-3.912 17.636-3.782 25.05-4.1737 17.369-15.487 37.587-7.842 55.442 8.9568 9.4006 29.32 8.4143 28.426 25.567-2.7049 11.088 4.5074 21.393 15.965 20.476 0.76227 4.677-2.0295 10.068 3.634 15.769 7.6686 16.236 33.993 25.28 29.144 46.131-3.6995 8.3597-5.6965 19.58 4.943 23.725 9.4602 8.6046 3.2412 22.44 1.075 31.627 6.5942-1.2601 16.212 3.8511 10.607 11.2-2.0569 6.8455-15.129 6.0784-10.828-2.074 7.7711-0.10809 5.632-3.0873-0.392-2.511-15.475-4.9244 3.7974-20.901-3.321-31.042-7.6558-6.5993-15.995-15.321-10.119-26.467 8.4129-14.516-7.7833-25.35-16.529-34.151-8.5498-6.8016-12.773-19.032-17.37-27.174-14.352-3.0566-12.659-19.247-14.413-30.267-6.2838-10.222-24.085-7.7163-28.26-20.739-5.8448-18.321 4.8803-41.21 7.86-55.368-2.6596 6.9402-17.24 15.025-17.803 2.835 3.7864-30.959 23.492-58.782 25.804-89.689-10.545-0.46456-18.561 8.7479-25.393 14.75-9.0792-3.7161 4.1321-12.752 3.912-18.843 4.9184-17.235 19.325-41.347 6.143-57.938-14.66-7.1719-28.254 9.3991-37.738 18.419-8.4877 6.2474-12.762 21.75-22.981 22.616 7.9051-19.431 28.026-43.066 51.221-49.4 1.0129-0.13466 2.0351-0.20153 3.057-0.19zm101.96 387.4c-0.009-0.0686-0.0666-0.29356 0 0z"/>
					<path d="m-37.24-393.13c17.224-2.5047 31.409 8.2412 47.295 11.644 19.588 0.2651 42.502-10.977 60.718-0.161 5.4236 6.8407-1.8345 9.1847-5.983 3.713-25.685-6.8671-53.915 12.502-77.626-4.882-32.944-9.567-67.984 0.97056-100.74 6.723-20.134 5.7814-42.439 8.479-60.661 18.942-8.5403 11.689-8.5556 32.832-5.721 42.883 0.0216-6.7824 8.1556-19.927 8.621-6.766 0.80579 6.9789-8.167 24.171-14.448 12.217-3.9613-18.02-4.7419-41.933 9.811-55.54 43.951-16.635 91.707-27.049 138.73-28.773z"/>
					<path d="m-313.11-325.09c17.348 1.2062 33.814 15.527 47.293 21.448 2.4068-15.508 12.64-34.147-4.127-45.549-9.0086-13.496 10.025-24.093 18.184-31.801 10.786-8.4631 21.256-15.829 26.523-27.988 8.0908-6.0671 7.7495 8.2455 2.11 11.088-12.011 15.926-33.362 23.707-42.83 41.323 3.9053 9.6096 16.401 17.282 11.899 29.507-1.8146 12.748-12.219 29.637 1.872 38.822 3.5689 3.9642 15.307 17.172 4.283 19.189-13.088-1.8507-17.387-15.917-19.667-26.345-12.529-10.13-27.667-18.576-43.302-22.939-15.895-2.431-26.394 14.496-38.939 18.473-8.6005-5.7402 30.027-28.778 36.701-25.228zm55.644 40.85c2.0097 4.4796 7.2339 8.0778 1.165 1.353-0.2772-0.31631-1.1285-1.4176-1.165-1.353z"/>
				</g>
				<use xlink:href="#Polka" transform="scale(-1,1)"/>
			</g>
			<use xlink:href="#Tvar" transform="rotate(180)"/>
		</g>
		<use xlink:href="#Tvary" transform="rotate(90)"/>
	</g>
</svg>
